<svg xmlns="http://www.w3.org/2000/svg">
  <symbol id="arrow-up-right" viewBox="0 0 20 20" fill="none">
    <path d="M5 15L15 5M8 5H15V12" stroke="currentColor" stroke-width="1.8" stroke-linecap="round" stroke-linejoin="round" />
  </symbol>
  <symbol id="bolt" viewBox="0 0 20 20" fill="none">
    <path d="M11.2 1.5L4.8 10H9L7.9 18.5L14.9 9.8H10.7L11.2 1.5Z" stroke="currentColor" stroke-width="1.7" stroke-linecap="round" stroke-linejoin="round" />
  </symbol>
  <symbol id="book" viewBox="0 0 20 20" fill="none">
    <path d="M4 3.5C4 2.67 4.67 2 5.5 2H15.5V16.5H6.5C5.12 16.5 4 17.62 4 19V3.5ZM4 3.5C4 4.33 4.67 5 5.5 5H15.5" stroke="currentColor" stroke-width="1.7" stroke-linecap="round" stroke-linejoin="round" />
  </symbol>
  <symbol id="briefcase" viewBox="0 0 20 20" fill="none">
    <path d="M7 5.5V4.5C7 3.67 7.67 3 8.5 3H11.5C12.33 3 13 3.67 13 4.5V5.5M3 8H17V15C17 15.83 16.33 16.5 15.5 16.5H4.5C3.67 16.5 3 15.83 3 15V8ZM3 8V6.5C3 5.67 3.67 5 4.5 5H15.5C16.33 5 17 5.67 17 6.5V8M8.5 10.5H11.5" stroke="currentColor" stroke-width="1.7" stroke-linecap="round" stroke-linejoin="round" />
  </symbol>
  <symbol id="chevron-down" viewBox="0 0 20 20" fill="none">
    <path d="M5 7.5L10 12.5L15 7.5" stroke="currentColor" stroke-width="1.8" stroke-linecap="round" stroke-linejoin="round" />
  </symbol>
  <symbol id="code" viewBox="0 0 20 20" fill="none">
    <path d="M7 6L3 10L7 14M13 6L17 10L13 14M11 4L9 16" stroke="currentColor" stroke-width="1.7" stroke-linecap="round" stroke-linejoin="round" />
  </symbol>
  <symbol id="github" viewBox="0 0 24 24" fill="none">
    <path d="M9 18.5C4.75 19.75 4.75 16.25 3 15.75M15 21V17.78C15.03 17.4 14.98 17.01 14.85 16.66C14.72 16.31 14.5 16 14.2 15.76C17.03 15.44 20 14.37 20 9.47C19.9998 8.22 19.53 7.02 18.68 6.11C19.08 5.04 19.05 3.85 18.6 2.8C18.6 2.8 17.55 2.48 15 4.18C12.96 3.63 10.9 3.63 8.86 4.18C6.31 2.48 5.26 2.8 5.26 2.8C4.81 3.85 4.78 5.04 5.18 6.11C4.33 7.03 3.86 8.22 3.86 9.47C3.86 14.36 6.83 15.43 9.66 15.76C9.37 15.99 9.15 16.28 9.01 16.61C8.87 16.95 8.81 17.31 8.83 17.68V21" stroke="currentColor" stroke-width="1.7" stroke-linecap="round" stroke-linejoin="round" />
  </symbol>
  <symbol id="globe" viewBox="0 0 20 20" fill="none">
    <path d="M10 18C14.42 18 18 14.42 18 10C18 5.58 14.42 2 10 2C5.58 2 2 5.58 2 10C2 14.42 5.58 18 10 18ZM2.8 7.5H17.2M2.8 12.5H17.2M10 2C11.85 4.19 12.9 7.01 12.96 9.88C12.9 12.83 11.86 15.69 10 18C8.14 15.69 7.1 12.83 7.04 9.88C7.1 7.01 8.15 4.19 10 2Z" stroke="currentColor" stroke-width="1.7" stroke-linecap="round" stroke-linejoin="round" />
  </symbol>
  <symbol id="layers" viewBox="0 0 20 20" fill="none">
    <path d="M10 3L3 6.8L10 10.6L17 6.8L10 3ZM3 10.4L10 14.2L17 10.4M3 14L10 17.8L17 14" stroke="currentColor" stroke-width="1.7" stroke-linecap="round" stroke-linejoin="round" />
  </symbol>
  <symbol id="linkedin" viewBox="0 0 20 20" fill="none">
    <path d="M4.5 7.5V16M4.5 4.75C5.05 4.75 5.5 4.3 5.5 3.75C5.5 3.2 5.05 2.75 4.5 2.75C3.95 2.75 3.5 3.2 3.5 3.75C3.5 4.3 3.95 4.75 4.5 4.75ZM9 16V10.75C9 9.23 10.23 8 11.75 8C13.27 8 14.5 9.23 14.5 10.75V16M9 7.5V16" stroke="currentColor" stroke-width="1.7" stroke-linecap="round" stroke-linejoin="round" />
  </symbol>
  <symbol id="mail" viewBox="0 0 20 20" fill="none">
    <path d="M3 5.5C3 4.67 3.67 4 4.5 4H15.5C16.33 4 17 4.67 17 5.5V14.5C17 15.33 16.33 16 15.5 16H4.5C3.67 16 3 15.33 3 14.5V5.5ZM4 5L10 10L16 5" stroke="currentColor" stroke-width="1.7" stroke-linecap="round" stroke-linejoin="round" />
  </symbol>
  <symbol id="map-pin" viewBox="0 0 20 20" fill="none">
    <path d="M10 17C12.33 14.22 14.5 11.94 14.5 8.75C14.5 6.26 12.49 4.25 10 4.25C7.51 4.25 5.5 6.26 5.5 8.75C5.5 11.94 7.67 14.22 10 17ZM10 10.5C10.97 10.5 11.75 9.72 11.75 8.75C11.75 7.78 10.97 7 10 7C9.03 7 8.25 7.78 8.25 8.75C8.25 9.72 9.03 10.5 10 10.5Z" stroke="currentColor" stroke-width="1.7" stroke-linecap="round" stroke-linejoin="round" />
  </symbol>
  <symbol id="spark" viewBox="0 0 20 20" fill="none">
    <path d="M10 2.5L11.51 6.49L15.5 8L11.51 9.51L10 13.5L8.49 9.51L4.5 8L8.49 6.49L10 2.5ZM15.75 13.25L16.5 15.25L18.5 16L16.5 16.75L15.75 18.75L15 16.75L13 16L15 15.25L15.75 13.25ZM5.25 12L6 14L8 14.75L6 15.5L5.25 17.5L4.5 15.5L2.5 14.75L4.5 14L5.25 12Z" stroke="currentColor" stroke-width="1.6" stroke-linecap="round" stroke-linejoin="round" />
  </symbol>
</svg>